<svg id="visual" viewBox="0 0 900 600" width="900" height="600" xmlns="http://www.w3.org/2000/svg" xmlns:xlink="http://www.w3.org/1999/xlink" version="1.1"><rect width="900" height="600" fill="#FFFFFF"></rect><g><g transform="translate(771 273)"><path d="M82 -26.5C93.2 8 80.4 50.4 51.2 71.9C22.1 93.4 -23.2 93.9 -52.5 72.6C-81.7 51.2 -94.9 8.1 -83.5 -26.6C-72 -61.3 -36 -87.5 -0.3 -87.4C35.4 -87.3 70.7 -60.9 82 -26.5Z" fill="#eedeff"></path></g><g transform="translate(363 8)"><path d="M83.5 -23.5C94.7 7.3 80.9 49.9 52.9 69.4C24.9 88.9 -17.2 85.3 -44.3 64.8C-71.3 44.2 -83.2 6.7 -73.2 -22.4C-63.3 -51.5 -31.7 -72 2.2 -72.8C36.1 -73.5 72.3 -54.4 83.5 -23.5Z" fill="#eedeff"></path></g><g transform="translate(99 498)"><path d="M82.7 -27.8C92.9 4.4 76.9 44.2 50.3 61.9C23.6 79.5 -13.9 75.1 -40.6 55.7C-67.2 36.4 -83.1 2.1 -74.5 -27.9C-66 -57.9 -33 -83.7 1.6 -84.2C36.3 -84.8 72.5 -60.1 82.7 -27.8Z" fill="#eedeff"></path></g></g></svg>