<svg id="visual" viewBox="0 0 900 600" width="900" height="600" xmlns="http://www.w3.org/2000/svg" xmlns:xlink="http://www.w3.org/1999/xlink" version="1.1"><rect x="0" y="0" width="900" height="600" fill="#FFFFFF"></rect><defs><linearGradient id="grad1_0" x1="33.3%" y1="0%" x2="100%" y2="100%"><stop offset="20%" stop-color="#cf9fff" stop-opacity="1"></stop><stop offset="80%" stop-color="#cf9fff" stop-opacity="1"></stop></linearGradient></defs><defs><linearGradient id="grad1_1" x1="33.3%" y1="0%" x2="100%" y2="100%"><stop offset="20%" stop-color="#cf9fff" stop-opacity="1"></stop><stop offset="80%" stop-color="#e1bfff" stop-opacity="1"></stop></linearGradient></defs><defs><linearGradient id="grad1_2" x1="33.3%" y1="0%" x2="100%" y2="100%"><stop offset="20%" stop-color="#f0dfff" stop-opacity="1"></stop><stop offset="80%" stop-color="#e1bfff" stop-opacity="1"></stop></linearGradient></defs><defs><linearGradient id="grad1_3" x1="33.3%" y1="0%" x2="100%" y2="100%"><stop offset="20%" stop-color="#f0dfff" stop-opacity="1"></stop><stop offset="80%" stop-color="#ffffff" stop-opacity="1"></stop></linearGradient></defs><defs><linearGradient id="grad2_0" x1="0%" y1="0%" x2="66.7%" y2="100%"><stop offset="20%" stop-color="#cf9fff" stop-opacity="1"></stop><stop offset="80%" stop-color="#cf9fff" stop-opacity="1"></stop></linearGradient></defs><defs><linearGradient id="grad2_1" x1="0%" y1="0%" x2="66.7%" y2="100%"><stop offset="20%" stop-color="#e1bfff" stop-opacity="1"></stop><stop offset="80%" stop-color="#cf9fff" stop-opacity="1"></stop></linearGradient></defs><defs><linearGradient id="grad2_2" x1="0%" y1="0%" x2="66.7%" y2="100%"><stop offset="20%" stop-color="#e1bfff" stop-opacity="1"></stop><stop offset="80%" stop-color="#f0dfff" stop-opacity="1"></stop></linearGradient></defs><defs><linearGradient id="grad2_3" x1="0%" y1="0%" x2="66.7%" y2="100%"><stop offset="20%" stop-color="#ffffff" stop-opacity="1"></stop><stop offset="80%" stop-color="#f0dfff" stop-opacity="1"></stop></linearGradient></defs><g transform="translate(900, 0)"><path d="M0 270.4C-11.2 256.8 -22.5 243.2 -34.3 238.5C-46.1 233.9 -58.5 238.1 -69.3 236C-80.1 234 -89.4 225.6 -102.2 223.8C-115 221.9 -131.4 226.6 -142.7 222.1C-154.1 217.6 -160.3 204 -165.7 191.2C-171 178.4 -175.4 166.6 -180.6 156.5C-185.8 146.4 -191.9 138.2 -206.1 132.5C-220.3 126.7 -242.7 123.5 -246 112.3C-249.3 101.1 -233.6 81.9 -233.2 68.5C-232.7 55 -247.6 47.3 -256.4 36.9C-265.1 26.4 -267.8 13.2 -270.4 0L0 0Z" fill="#f8efff"></path><path d="M0 202.8C-8.4 192.6 -16.9 182.4 -25.7 178.9C-34.6 175.4 -43.9 178.6 -52 177C-60.1 175.5 -67 169.2 -76.6 167.8C-86.3 166.4 -98.5 169.9 -107 166.6C-115.5 163.2 -120.3 153 -124.3 143.4C-128.3 133.8 -131.6 124.9 -135.5 117.4C-139.4 109.8 -143.9 103.6 -154.6 99.3C-165.2 95 -182 92.7 -184.5 84.3C-187 75.8 -175.2 61.4 -174.9 51.3C-174.6 41.3 -185.7 35.5 -192.3 27.6C-198.8 19.8 -200.8 9.9 -202.8 0L0 0Z" fill="#e9cfff"></path><path d="M0 135.2C-5.6 128.4 -11.2 121.6 -17.1 119.3C-23.1 116.9 -29.2 119 -34.7 118C-40.1 117 -44.7 112.8 -51.1 111.9C-57.5 111 -65.7 113.3 -71.4 111C-77 108.8 -80.2 102 -82.8 95.6C-85.5 89.2 -87.7 83.3 -90.3 78.3C-92.9 73.2 -96 69.1 -103.1 66.2C-110.2 63.4 -121.3 61.8 -123 56.2C-124.6 50.6 -116.8 41 -116.6 34.2C-116.4 27.5 -123.8 23.7 -128.2 18.4C-132.6 13.2 -133.9 6.6 -135.2 0L0 0Z" fill="#d8afff"></path><path d="M0 67.6C-2.8 64.2 -5.6 60.8 -8.6 59.6C-11.5 58.5 -14.6 59.5 -17.3 59C-20 58.5 -22.3 56.4 -25.5 55.9C-28.8 55.5 -32.8 56.6 -35.7 55.5C-38.5 54.4 -40.1 51 -41.4 47.8C-42.8 44.6 -43.9 41.6 -45.2 39.1C-46.5 36.6 -48 34.5 -51.5 33.1C-55.1 31.7 -60.7 30.9 -61.5 28.1C-62.3 25.3 -58.4 20.5 -58.3 17.1C-58.2 13.8 -61.9 11.8 -64.1 9.2C-66.3 6.6 -66.9 3.3 -67.6 0L0 0Z" fill="#cf9fff"></path></g><g transform="translate(0, 600)"><path d="M0 -270.4C14 -273.1 28 -275.7 38.1 -265.3C48.3 -254.8 54.6 -231.3 66.2 -225.5C77.8 -219.6 94.8 -231.5 103 -225.6C111.2 -219.7 110.6 -196.2 123.8 -192.6C137 -189.1 164 -205.7 176.2 -203.3C188.3 -200.9 185.8 -179.5 194.2 -168.3C202.7 -157.1 222.2 -156 225.5 -144.9C228.7 -133.8 215.7 -112.5 218.3 -99.7C221 -86.9 239.3 -82.4 250.4 -73.5C261.6 -64.7 265.5 -51.5 267.7 -38.5C269.8 -25.5 270.1 -12.8 270.4 0L0 0Z" fill="#f8efff"></path><path d="M0 -202.8C10.5 -204.8 21 -206.8 28.6 -199C36.2 -191.1 40.9 -173.5 49.7 -169.1C58.4 -164.7 71.1 -173.6 77.3 -169.2C83.4 -164.8 83 -147.1 92.9 -144.5C102.7 -141.9 123 -154.3 132.1 -152.5C141.3 -150.7 139.3 -134.6 145.7 -126.2C152 -117.8 166.7 -117 169.1 -108.7C171.5 -100.3 161.7 -84.4 163.7 -74.8C165.7 -65.1 179.5 -61.8 187.8 -55.1C196.2 -48.5 199.1 -38.6 200.7 -28.9C202.3 -19.1 202.6 -9.6 202.8 0L0 0Z" fill="#e9cfff"></path><path d="M0 -135.2C7 -136.5 14 -137.9 19.1 -132.6C24.1 -127.4 27.3 -115.7 33.1 -112.7C38.9 -109.8 47.4 -115.7 51.5 -112.8C55.6 -109.9 55.3 -98.1 61.9 -96.3C68.5 -94.6 82 -102.9 88.1 -101.6C94.2 -100.4 92.9 -89.8 97.1 -84.1C101.3 -78.5 111.1 -78 112.7 -72.4C114.3 -66.9 107.8 -56.3 109.2 -49.8C110.5 -43.4 119.6 -41.2 125.2 -36.8C130.8 -32.3 132.8 -25.7 133.8 -19.2C134.9 -12.8 135.1 -6.4 135.2 0L0 0Z" fill="#d8afff"></path><path d="M0 -67.6C3.5 -68.3 7 -68.9 9.5 -66.3C12.1 -63.7 13.6 -57.8 16.6 -56.4C19.5 -54.9 23.7 -57.9 25.8 -56.4C27.8 -54.9 27.7 -49 31 -48.2C34.2 -47.3 41 -51.4 44 -50.8C47.1 -50.2 46.4 -44.9 48.6 -42.1C50.7 -39.3 55.6 -39 56.4 -36.2C57.2 -33.4 53.9 -28.1 54.6 -24.9C55.2 -21.7 59.8 -20.6 62.6 -18.4C65.4 -16.2 66.4 -12.9 66.9 -9.6C67.4 -6.4 67.5 -3.2 67.6 0L0 0Z" fill="#cf9fff"></path></g></svg>