<svg id="visual" viewBox="0 0 900 600" width="900" height="600" xmlns="http://www.w3.org/2000/svg" xmlns:xlink="http://www.w3.org/1999/xlink" version="1.1"><rect x="0" y="0" width="900" height="600" fill="#FFFFFF"></rect><defs><linearGradient id="grad1_0" x1="33.3%" y1="100%" x2="100%" y2="0%"><stop offset="20%" stop-color="#cf9fff" stop-opacity="1"></stop><stop offset="80%" stop-color="#cf9fff" stop-opacity="1"></stop></linearGradient></defs><defs><linearGradient id="grad1_1" x1="33.3%" y1="100%" x2="100%" y2="0%"><stop offset="20%" stop-color="#cf9fff" stop-opacity="1"></stop><stop offset="80%" stop-color="#e1bfff" stop-opacity="1"></stop></linearGradient></defs><defs><linearGradient id="grad1_2" x1="33.3%" y1="100%" x2="100%" y2="0%"><stop offset="20%" stop-color="#f0dfff" stop-opacity="1"></stop><stop offset="80%" stop-color="#e1bfff" stop-opacity="1"></stop></linearGradient></defs><defs><linearGradient id="grad1_3" x1="33.3%" y1="100%" x2="100%" y2="0%"><stop offset="20%" stop-color="#f0dfff" stop-opacity="1"></stop><stop offset="80%" stop-color="#ffffff" stop-opacity="1"></stop></linearGradient></defs><defs><linearGradient id="grad2_0" x1="0%" y1="100%" x2="66.7%" y2="0%"><stop offset="20%" stop-color="#cf9fff" stop-opacity="1"></stop><stop offset="80%" stop-color="#cf9fff" stop-opacity="1"></stop></linearGradient></defs><defs><linearGradient id="grad2_1" x1="0%" y1="100%" x2="66.7%" y2="0%"><stop offset="20%" stop-color="#e1bfff" stop-opacity="1"></stop><stop offset="80%" stop-color="#cf9fff" stop-opacity="1"></stop></linearGradient></defs><defs><linearGradient id="grad2_2" x1="0%" y1="100%" x2="66.7%" y2="0%"><stop offset="20%" stop-color="#e1bfff" stop-opacity="1"></stop><stop offset="80%" stop-color="#f0dfff" stop-opacity="1"></stop></linearGradient></defs><defs><linearGradient id="grad2_3" x1="0%" y1="100%" x2="66.7%" y2="0%"><stop offset="20%" stop-color="#ffffff" stop-opacity="1"></stop><stop offset="80%" stop-color="#f0dfff" stop-opacity="1"></stop></linearGradient></defs><g transform="translate(900, 600)"><path d="M-270.4 0C-256.8 -11.2 -243.2 -22.5 -238.5 -34.3C-233.9 -46.1 -238.1 -58.5 -236 -69.3C-234 -80.1 -225.6 -89.4 -223.8 -102.2C-221.9 -115 -226.6 -131.4 -222.1 -142.7C-217.6 -154.1 -204 -160.3 -191.2 -165.7C-178.4 -171 -166.6 -175.4 -156.5 -180.6C-146.4 -185.8 -138.2 -191.9 -132.5 -206.1C-126.7 -220.3 -123.5 -242.7 -112.3 -246C-101.1 -249.3 -81.9 -233.6 -68.5 -233.2C-55 -232.7 -47.3 -247.6 -36.9 -256.4C-26.4 -265.1 -13.2 -267.8 0 -270.4L0 0Z" fill="#f8efff"></path><path d="M-202.8 0C-192.6 -8.4 -182.4 -16.9 -178.9 -25.7C-175.4 -34.6 -178.6 -43.9 -177 -52C-175.5 -60.1 -169.2 -67 -167.8 -76.6C-166.4 -86.3 -169.9 -98.5 -166.6 -107C-163.2 -115.5 -153 -120.3 -143.4 -124.3C-133.8 -128.3 -124.9 -131.6 -117.4 -135.5C-109.8 -139.4 -103.6 -143.9 -99.3 -154.6C-95 -165.2 -92.7 -182 -84.3 -184.5C-75.8 -187 -61.4 -175.2 -51.3 -174.9C-41.3 -174.6 -35.5 -185.7 -27.6 -192.3C-19.8 -198.8 -9.9 -200.8 0 -202.8L0 0Z" fill="#e9cfff"></path><path d="M-135.2 0C-128.4 -5.6 -121.6 -11.2 -119.3 -17.1C-116.9 -23.1 -119 -29.2 -118 -34.7C-117 -40.1 -112.8 -44.7 -111.9 -51.1C-111 -57.5 -113.3 -65.7 -111 -71.4C-108.8 -77 -102 -80.2 -95.6 -82.8C-89.2 -85.5 -83.3 -87.7 -78.3 -90.3C-73.2 -92.9 -69.1 -96 -66.2 -103.1C-63.4 -110.2 -61.8 -121.3 -56.2 -123C-50.6 -124.6 -41 -116.8 -34.2 -116.6C-27.5 -116.4 -23.7 -123.8 -18.4 -128.2C-13.2 -132.6 -6.6 -133.9 0 -135.2L0 0Z" fill="#d8afff"></path><path d="M-67.6 0C-64.2 -2.8 -60.8 -5.6 -59.6 -8.6C-58.5 -11.5 -59.5 -14.6 -59 -17.3C-58.5 -20 -56.4 -22.3 -55.9 -25.5C-55.5 -28.8 -56.6 -32.8 -55.5 -35.7C-54.4 -38.5 -51 -40.1 -47.8 -41.4C-44.6 -42.8 -41.6 -43.9 -39.1 -45.2C-36.6 -46.5 -34.5 -48 -33.1 -51.5C-31.7 -55.1 -30.9 -60.7 -28.1 -61.5C-25.3 -62.3 -20.5 -58.4 -17.1 -58.3C-13.8 -58.2 -11.8 -61.9 -9.2 -64.1C-6.6 -66.3 -3.3 -66.9 0 -67.6L0 0Z" fill="#cf9fff"></path></g><g transform="translate(0, 0)"><path d="M270.4 0C273.1 14 275.7 28 265.3 38.1C254.8 48.3 231.3 54.6 225.5 66.2C219.6 77.8 231.5 94.8 225.6 103C219.7 111.2 196.2 110.6 192.6 123.8C189.1 137 205.7 164 203.3 176.2C200.9 188.3 179.5 185.8 168.3 194.2C157.1 202.7 156 222.2 144.9 225.5C133.8 228.7 112.5 215.7 99.7 218.3C86.9 221 82.4 239.3 73.5 250.4C64.7 261.6 51.5 265.5 38.5 267.7C25.5 269.8 12.8 270.1 0 270.4L0 0Z" fill="#f8efff"></path><path d="M202.8 0C204.8 10.5 206.8 21 199 28.6C191.1 36.2 173.5 40.9 169.1 49.7C164.7 58.4 173.6 71.1 169.2 77.3C164.8 83.4 147.1 83 144.5 92.9C141.9 102.7 154.3 123 152.5 132.1C150.7 141.3 134.6 139.3 126.2 145.7C117.8 152 117 166.7 108.7 169.1C100.3 171.5 84.4 161.7 74.8 163.7C65.1 165.7 61.8 179.5 55.1 187.8C48.5 196.2 38.6 199.1 28.9 200.7C19.1 202.3 9.6 202.6 0 202.8L0 0Z" fill="#e9cfff"></path><path d="M135.2 0C136.5 7 137.9 14 132.6 19.1C127.4 24.1 115.7 27.3 112.7 33.1C109.8 38.9 115.7 47.4 112.8 51.5C109.9 55.6 98.1 55.3 96.3 61.9C94.6 68.5 102.9 82 101.6 88.1C100.4 94.2 89.8 92.9 84.1 97.1C78.5 101.3 78 111.1 72.4 112.7C66.9 114.3 56.3 107.8 49.8 109.2C43.4 110.5 41.2 119.6 36.8 125.2C32.3 130.8 25.7 132.8 19.2 133.8C12.8 134.9 6.4 135.1 0 135.2L0 0Z" fill="#d8afff"></path><path d="M67.6 0C68.3 3.5 68.9 7 66.3 9.5C63.7 12.1 57.8 13.6 56.4 16.6C54.9 19.5 57.9 23.7 56.4 25.8C54.9 27.8 49 27.7 48.2 31C47.3 34.2 51.4 41 50.8 44C50.2 47.1 44.9 46.4 42.1 48.6C39.3 50.7 39 55.6 36.2 56.4C33.4 57.2 28.1 53.9 24.9 54.6C21.7 55.2 20.6 59.8 18.4 62.6C16.2 65.4 12.9 66.4 9.6 66.9C6.4 67.4 3.2 67.5 0 67.6L0 0Z" fill="#cf9fff"></path></g></svg>