<svg id="visual" viewBox="0 0 900 600" width="900" height="600" xmlns="http://www.w3.org/2000/svg" xmlns:xlink="http://www.w3.org/1999/xlink" version="1.1"><path d="M0 91L10 92C20 93 40 95 60 93C80 91 100 85 120 81C140 77 160 75 180 72C200 69 220 65 240 68C260 71 280 81 300 86C320 91 340 91 360 94C380 97 400 103 420 101C440 99 460 89 480 87C500 85 520 91 540 89C560 87 580 77 600 74C620 71 640 75 660 80C680 85 700 91 720 89C740 87 760 77 780 77C800 77 820 87 840 92C860 97 880 97 890 97L900 97L900 0L890 0C880 0 860 0 840 0C820 0 800 0 780 0C760 0 740 0 720 0C700 0 680 0 660 0C640 0 620 0 600 0C580 0 560 0 540 0C520 0 500 0 480 0C460 0 440 0 420 0C400 0 380 0 360 0C340 0 320 0 300 0C280 0 260 0 240 0C220 0 200 0 180 0C160 0 140 0 120 0C100 0 80 0 60 0C40 0 20 0 10 0L0 0Z" fill="#ffffff"></path><path d="M0 211L10 224C20 237 40 263 60 277C80 291 100 293 120 292C140 291 160 287 180 286C200 285 220 287 240 277C260 267 280 245 300 232C320 219 340 215 360 218C380 221 400 231 420 233C440 235 460 229 480 235C500 241 520 259 540 270C560 281 580 285 600 271C620 257 640 225 660 229C680 233 700 273 720 286C740 299 760 285 780 286C800 287 820 303 840 296C860 289 880 259 890 244L900 229L900 95L890 95C880 95 860 95 840 90C820 85 800 75 780 75C760 75 740 85 720 87C700 89 680 83 660 78C640 73 620 69 600 72C580 75 560 85 540 87C520 89 500 83 480 85C460 87 440 97 420 99C400 101 380 95 360 92C340 89 320 89 300 84C280 79 260 69 240 66C220 63 200 67 180 70C160 73 140 75 120 79C100 83 80 89 60 91C40 93 20 91 10 90L0 89Z" fill="#f4e7ff"></path><path d="M0 331L10 338C20 345 40 359 60 373C80 387 100 401 120 403C140 405 160 395 180 390C200 385 220 385 240 374C260 363 280 341 300 328C320 315 340 311 360 316C380 321 400 335 420 337C440 339 460 329 480 329C500 329 520 339 540 353C560 367 580 385 600 380C620 375 640 347 660 350C680 353 700 387 720 399C740 411 760 401 780 401C800 401 820 411 840 399C860 387 880 353 890 336L900 319L900 227L890 242C880 257 860 287 840 294C820 301 800 285 780 284C760 283 740 297 720 284C700 271 680 231 660 227C640 223 620 255 600 269C580 283 560 279 540 268C520 257 500 239 480 233C460 227 440 233 420 231C400 229 380 219 360 216C340 213 320 217 300 230C280 243 260 265 240 275C220 285 200 283 180 284C160 285 140 289 120 290C100 291 80 289 60 275C40 261 20 235 10 222L0 209Z" fill="#e9cfff"></path><path d="M0 409L10 416C20 423 40 437 60 447C80 457 100 463 120 465C140 467 160 465 180 459C200 453 220 443 240 431C260 419 280 405 300 395C320 385 340 379 360 383C380 387 400 401 420 401C440 401 460 387 480 391C500 395 520 417 540 433C560 449 580 459 600 448C620 437 640 405 660 406C680 407 700 441 720 454C740 467 760 459 780 458C800 457 820 463 840 449C860 435 880 401 890 384L900 367L900 317L890 334C880 351 860 385 840 397C820 409 800 399 780 399C760 399 740 409 720 397C700 385 680 351 660 348C640 345 620 373 600 378C580 383 560 365 540 351C520 337 500 327 480 327C460 327 440 337 420 335C400 333 380 319 360 314C340 309 320 313 300 326C280 339 260 361 240 372C220 383 200 383 180 388C160 393 140 403 120 401C100 399 80 385 60 371C40 357 20 343 10 336L0 329Z" fill="#ddb7ff"></path><path d="M0 601L10 601C20 601 40 601 60 601C80 601 100 601 120 601C140 601 160 601 180 601C200 601 220 601 240 601C260 601 280 601 300 601C320 601 340 601 360 601C380 601 400 601 420 601C440 601 460 601 480 601C500 601 520 601 540 601C560 601 580 601 600 601C620 601 640 601 660 601C680 601 700 601 720 601C740 601 760 601 780 601C800 601 820 601 840 601C860 601 880 601 890 601L900 601L900 365L890 382C880 399 860 433 840 447C820 461 800 455 780 456C760 457 740 465 720 452C700 439 680 405 660 404C640 403 620 435 600 446C580 457 560 447 540 431C520 415 500 393 480 389C460 385 440 399 420 399C400 399 380 385 360 381C340 377 320 383 300 393C280 403 260 417 240 429C220 441 200 451 180 457C160 463 140 465 120 463C100 461 80 455 60 445C40 435 20 421 10 414L0 407Z" fill="#cf9fff"></path></svg>